<svg width="80" height="80" viewBox="0 0 151 151" fill="none" xmlns="http://www.w3.org/2000/svg">
    <path
        d="M75.3215 150.879C62.5044 150.859 49.9047 147.573 38.7168 141.334C27.5289 135.094 18.1235 126.107 11.392 115.225C4.66059 104.343 0.826164 91.9255 0.252255 79.1505C-0.321654 66.3754 2.38396 53.6658 8.11261 42.2263C26.6611 5.2141 71.9401 -9.84157 109.033 8.66453C124.176 16.2455 136.312 28.7021 143.479 44.0191C150.645 59.3361 152.423 76.6174 148.523 93.0673C144.624 109.517 135.276 124.173 121.992 134.665C108.707 145.156 92.2639 150.869 75.3215 150.879ZM75.5139 5.14586C58.1508 5.12227 41.3846 11.4657 28.403 22.9699C15.4214 34.4742 7.12993 50.337 5.10504 67.5421C3.08015 84.7473 7.46308 102.095 17.4205 116.287C27.3778 130.478 42.2153 140.524 59.1115 144.514C76.0077 148.504 93.7844 146.16 109.061 137.927C124.339 129.695 136.051 116.148 141.971 99.8627C147.891 83.5774 147.606 65.6893 141.171 49.5998C134.735 33.5102 122.598 20.3413 107.066 12.5969C97.267 7.71498 86.467 5.16461 75.5139 5.14586Z"
        fill="#D9D9D9" />
    <path
        d="M75.2701 150.836C63.6292 150.836 52.1489 148.125 41.7426 142.92C41.2194 142.659 40.8216 142.201 40.6368 141.647C40.452 141.093 40.4954 140.489 40.7573 139.967C41.0192 139.445 41.4782 139.048 42.0334 138.863C42.5885 138.679 43.1944 138.722 43.7176 138.984C78.643 156.406 121.259 142.229 138.721 107.388C142.96 99.0815 145.509 90.0204 146.222 80.7267C146.936 71.433 145.798 62.0903 142.877 53.237C139.955 44.3837 135.306 36.1947 129.198 29.142C123.09 22.0892 115.643 16.3119 107.287 12.1432C98.9316 7.97438 89.8315 5.49644 80.5116 4.8521C71.1917 4.20776 61.836 5.40976 52.9838 8.38885C44.1315 11.3679 35.9576 16.0652 28.9329 22.2101C21.9083 28.3549 16.1718 35.8259 12.0539 44.1925C11.9245 44.4507 11.7454 44.681 11.5268 44.8701C11.3082 45.0592 11.0544 45.2036 10.7799 45.2949C10.5054 45.3862 10.2156 45.4226 9.92701 45.4021C9.63839 45.3817 9.35664 45.3047 9.09785 45.1756C8.83905 45.0465 8.60826 44.8678 8.41868 44.6497C8.22911 44.4316 8.08445 44.1784 7.99295 43.9046C7.90145 43.6307 7.86491 43.3415 7.88543 43.0536C7.90594 42.7656 7.9831 42.4845 8.1125 42.2263C26.661 5.2141 71.9401 -9.84157 109.033 8.66453C124.183 16.2413 136.326 28.6994 143.494 44.0207C150.662 59.342 152.435 76.6291 148.527 93.0816C144.619 109.534 135.258 124.188 121.961 134.671C108.664 145.153 92.2086 150.849 75.2616 150.836H75.2701Z"
        fill="url(#paint0_linear_0_1)" />
    <path
        d="M75.3301 142.43C58.5069 142.446 42.2943 136.142 29.9186 124.773C17.5429 113.403 9.91137 97.8014 8.54281 81.0723C7.17424 64.3432 12.1689 47.7133 22.5329 34.492C32.8969 21.2706 47.8704 12.4272 64.4735 9.72148C81.0767 7.0158 98.0922 10.6463 112.134 19.8904C126.176 29.1345 136.214 43.3146 140.252 59.6087C144.29 75.9028 142.03 93.1163 133.924 107.824C125.817 122.531 112.457 133.654 96.5033 138.979C89.6793 141.265 82.5285 142.43 75.3301 142.43ZM75.4583 11.3515C68.5015 11.3592 61.5914 12.4869 54.9947 14.6911C21.2235 25.921 2.9101 62.4598 14.1657 96.1538C17.933 107.385 24.7326 117.361 33.8162 124.985C42.8999 132.609 53.9155 137.585 65.6509 139.365C77.3863 141.145 89.3865 139.661 100.331 135.076C111.275 130.491 120.74 122.982 127.683 113.376C134.626 103.77 138.778 92.4389 139.683 80.6302C140.587 68.8215 138.209 56.9927 132.81 46.4454C127.412 35.8982 119.201 27.0414 109.082 20.8497C98.9633 14.658 87.3286 11.3714 75.4583 11.3515Z"
        fill="#D9D9D9" />
    <path
        d="M75.3 134.927C66.1283 134.928 57.0833 132.792 48.8858 128.688C19.6502 114.105 7.75766 78.5092 22.3819 49.3575C37.0061 20.2058 72.6752 8.32335 101.894 22.9141C131.129 37.5006 143.022 73.0968 128.398 102.244C123.461 112.073 115.879 120.337 106.501 126.11C97.123 131.882 86.3192 134.935 75.3 134.927ZM75.4881 17.7577C64.6712 17.7471 54.0651 20.7421 44.8583 26.407C35.6514 32.0718 28.2075 40.1828 23.3608 49.8309C9.01445 78.458 20.6847 113.38 49.3774 127.707C78.0701 142.033 113.072 130.372 127.427 101.75C141.782 73.1267 130.103 38.2001 101.411 23.878C93.3649 19.8529 84.4886 17.7572 75.4881 17.7577Z"
        fill="url(#paint1_linear_0_1)" />
    <defs>
        <linearGradient id="paint0_linear_0_1" x1="128.623" y1="22.6981" x2="25.1008" y2="126.457"
            gradientUnits="userSpaceOnUse">
            <stop stop-color="#F441A5" />
            <stop offset="1" stop-color="#831BFF" />
        </linearGradient>
        <linearGradient id="paint1_linear_0_1" x1="16.1235" y1="75.7924" x2="134.665" y2="75.7924"
            gradientUnits="userSpaceOnUse">
            <stop stop-color="#F441A5" />
            <stop offset="1" stop-color="#616EB4" />
        </linearGradient>
    </defs>
</svg>