<svg width="30" height="32" viewBox="0 0 30 32" fill="none" xmlns="http://www.w3.org/2000/svg">
    <path
        d="M27.2344 30.7655C28.7812 30.7655 29.4844 29.5843 28.7812 28.1569L16.2656 2.31709C15.5625 0.889746 14.4375 0.889746 13.7344 2.31709L1.21875 28.1569C0.515623 29.5843 1.21875 30.7655 2.76562 30.7655H27.2344Z"
        fill="#FFCE31" />
    <path
        d="M16.9685 11.8657L15.656 20.9712C15.5154 21.8571 14.4373 21.8571 14.2966 20.9712L13.031 11.8657C12.7966 8.32195 17.2029 8.32195 16.9685 11.8657Z"
        fill="#231F20" />
    <path
        d="M14.9996 26.7298C13.9123 26.7298 13.0309 25.8043 13.0309 24.6626C13.0309 23.521 13.9123 22.5955 14.9996 22.5955C16.0869 22.5955 16.9684 23.521 16.9684 24.6626C16.9684 25.8043 16.0869 26.7298 14.9996 26.7298Z"
        fill="#231F20" />
</svg>