<svg width="40" height="40" viewBox="0 0 40 40" fill="none" xmlns="http://www.w3.org/2000/svg">
    <path
        d="M20 0C22.4075 0 24.715 0.425914 26.8526 1.20376L24.4631 3.59128C20.8469 2.60796 17.007 2.84707 13.5407 4.27144C10.0744 5.69581 7.17586 8.2256 5.29581 11.4675C3.41576 14.7093 2.65957 18.4815 3.14482 22.1975C3.63007 25.9135 5.32957 29.3651 7.97905 32.0154C10.6285 34.6658 14.0795 36.3664 17.7953 36.8529C21.5112 37.3394 25.2836 36.5845 28.5261 34.7055C31.7686 32.8266 34.2994 29.9289 35.7249 26.463C37.1504 22.9972 37.3908 19.1575 36.4087 15.5409L38.7962 13.1534C39.5948 15.3476 40.0022 17.6649 40 20C40 31.0458 31.0458 40 20 40C8.95421 40 0 31.0458 0 20C0 8.95421 8.95421 0 20 0ZM20 8.0024C21.0131 8.00193 22.0223 8.12959 23.0034 8.38232V11.5157C21.0793 10.835 18.9809 10.8286 17.0527 11.4976C15.1244 12.1667 13.4809 13.4713 12.3919 15.1975C11.3029 16.9237 10.8331 18.9688 11.0596 20.9972C11.2861 23.0256 12.1955 24.9167 13.6384 26.3602C15.0813 27.8036 16.9721 28.7137 19.0004 28.9409C21.0287 29.1681 23.074 28.6991 24.8006 27.6107C26.5272 26.5223 27.8325 24.8793 28.5022 22.9513C29.1719 21.0234 29.1663 18.925 28.4863 17.0006H31.6197C32.2452 19.4233 32.0976 21.981 31.1975 24.3157C30.2975 26.6504 28.69 28.6453 26.6 30.0211C24.51 31.397 22.0421 32.0849 19.5418 31.9887C17.0415 31.8925 14.6338 31.017 12.6557 29.4846C10.6776 27.9523 9.22808 25.8398 8.51005 23.4429C7.79201 21.0459 7.84137 18.4844 8.65121 16.1169C9.46105 13.7494 10.9908 11.6944 13.0265 10.2393C15.0622 8.78434 17.5018 8.0022 20.004 8.0024H20ZM23.9992 20C23.9989 20.8595 23.7217 21.6961 23.2087 22.3858C22.6956 23.0754 21.974 23.5814 21.1508 23.8287C20.3276 24.0761 19.4467 24.0516 18.6385 23.759C17.8303 23.4664 17.1378 22.9211 16.6638 22.2041C16.1898 21.487 15.9595 20.6364 16.0069 19.7781C16.0543 18.9199 16.377 18.0998 16.9271 17.4393C17.4771 16.7788 18.2254 16.3132 19.0609 16.1113C19.8964 15.9095 20.7747 15.9822 21.5657 16.3187L25.005 12.8794L25.003 6.5027C25.0033 6.10509 25.1616 5.72389 25.4429 5.44291L30.4419 0.443911C30.6516 0.23444 30.9187 0.0918197 31.2095 0.0340625C31.5002 -0.0236947 31.8016 0.00600207 32.0754 0.119402C32.3493 0.232802 32.5834 0.424819 32.7482 0.671201C32.913 0.917582 33.0011 1.20728 33.0014 1.5037V7.0026H38.5003C38.7967 7.00286 39.0864 7.09096 39.3328 7.25576C39.5792 7.42057 39.7712 7.65469 39.8846 7.92857C39.998 8.20244 40.0277 8.50377 39.9699 8.79451C39.9122 9.08525 39.7696 9.35235 39.5601 9.56209L34.5611 14.5611C34.2801 14.8424 33.8989 15.0006 33.5013 15.001H27.1226L23.6833 18.4403C23.8872 18.9202 23.9992 19.4461 23.9992 20ZM32.8794 12.0016L34.879 10.002H31.4997C31.1019 10.002 30.7205 9.84399 30.4392 9.56275C30.158 9.2815 30 8.90004 30 8.5023V5.12297L28.0024 7.12257V11.8836C28.0447 11.9205 28.0848 11.9599 28.1224 12.0016H32.8814H32.8794Z"
        fill="#015FF1" />
</svg>