<svg width="49" height="49" viewBox="0 0 59 59" fill="none" xmlns="http://www.w3.org/2000/svg">
    <g clip-path="url(#clip0_17_38)">
        <path
            d="M15.9024 42.0029C11.5445 42.1838 11.5478 48.392 15.9024 48.5713H24.8907C29.2486 48.3904 29.2453 42.1822 24.8907 42.0029H15.9024ZM26.4463 45.2871C26.4463 46.1449 25.7485 46.8428 24.8907 46.8428H15.9024C13.8381 46.7572 13.8397 43.8163 15.9024 43.7314H24.8907C25.7485 43.7314 26.4463 44.4293 26.4463 45.2871Z"
            fill="white" />
        <path
            d="M53.2808 9.16113H48.8814C47.737 9.20077 47.7379 10.8505 48.8814 10.8896H53.2808C54.0516 10.8896 54.6787 11.5166 54.6787 12.2876V35.4195C54.6787 36.1903 54.0517 36.8174 53.2808 36.8174H13.5551C12.7843 36.8174 12.1572 36.1904 12.1572 35.4195V34.2622H21.4336C26.5561 34.0495 26.5522 26.7522 21.4336 26.5415H12.1572V12.2876C12.1572 11.5168 12.7842 10.8896 13.5551 10.8896H44.8188C45.9632 10.85 45.9623 9.20031 44.8188 9.16113H38.2002V5.47363C38.2002 2.45553 35.7447 0 32.7266 0H8.06641C5.0483 0 2.59277 2.45553 2.59277 5.47363V10.4332C2.63241 11.5776 4.28211 11.5767 4.32129 10.4332V5.47363C4.32129 3.40852 6.00129 1.72852 8.06641 1.72852H32.7266C34.7917 1.72852 36.4717 3.40852 36.4717 5.47363V9.16113H35.2041V5.47363C35.2041 4.10753 34.0927 2.99609 32.7266 2.99609H28.1057C27.4686 2.99609 26.9009 3.40045 26.6925 4.00336L26.1388 5.61422H14.6539L14.0997 4.0022C13.8918 3.40045 13.3242 2.99621 12.6871 2.99621H8.06641C6.7003 2.99621 5.58887 4.10764 5.58887 5.47375V53.5265C5.58887 54.8926 6.7003 56.004 8.06641 56.004H32.7266C34.0927 56.004 35.2041 54.8926 35.2041 53.5265V50.8242C35.1645 49.6798 33.5148 49.6808 33.4756 50.8242V53.5265C33.4756 53.9395 33.1396 54.2755 32.7266 54.2755H8.06641C7.65341 54.2755 7.31738 53.9395 7.31738 53.5265V5.47375C7.31738 5.06075 7.65341 4.72472 8.06641 4.72472H12.5204L13.0746 6.33662C13.2824 6.93849 13.85 7.34273 14.4873 7.34273H26.3057C26.9428 7.34273 27.5106 6.93838 27.7188 6.33547L28.2725 4.72461H32.7266C33.1396 4.72461 33.4756 5.06063 33.4756 5.47363V9.16113H13.5551C11.8312 9.16113 10.4287 10.5637 10.4287 12.2876V35.4195C10.4287 37.1434 11.8312 38.5459 13.5551 38.5459H33.4756V46.7936C33.5152 47.938 35.1649 47.937 35.2041 46.7936V38.5459H36.4717V53.5264C36.4717 55.5915 34.7917 57.2715 32.7266 57.2715H8.06641C6.00129 57.2715 4.32129 55.5915 4.32129 53.5264V14.5195C4.28165 13.3751 2.63195 13.3761 2.59277 14.5195V53.5264C2.59277 56.5445 5.0483 59 8.06641 59H32.7266C35.7447 59 38.2002 56.5445 38.2002 53.5264V38.5459H53.2808C55.0047 38.5459 56.4072 37.1434 56.4072 35.4195V12.2876C56.4072 10.5637 55.0047 9.16113 53.2808 9.16113ZM21.4336 28.27C24.2625 28.3874 24.2603 32.4173 21.4336 32.5337H12.1572V28.27H21.4336Z"
            fill="white" />
        <path
            d="M40.0071 34.5421C40.4529 34.7122 40.9524 34.4881 41.1224 34.0421L41.5337 32.9621H44.3618L44.7684 34.0396C44.9364 34.4907 45.4473 34.7107 45.8822 34.543C46.3287 34.3745 46.5541 33.8759 46.3855 33.4292L43.9055 26.8578C43.9027 26.8498 43.8994 26.8419 43.8962 26.8339C43.7389 26.4519 43.3705 26.2052 42.9574 26.2052H42.956C42.5423 26.2057 42.1739 26.4534 42.0174 26.8365C42.0148 26.8429 42.0122 26.8492 42.0098 26.8557L39.5071 33.4268C39.3371 33.8728 39.5611 34.3721 40.0071 34.5421ZM42.9542 29.2324L43.7094 31.2336H42.192L42.9542 29.2324Z"
            fill="white" />
        <path
            d="M47.899 30.5861L47.8913 33.7322C47.8901 34.2096 48.2762 34.5975 48.7533 34.5987H48.7555C49.2319 34.5987 49.6186 34.2131 49.6198 33.7366L49.6275 30.5872L51.5996 27.5577C51.8601 27.1576 51.7469 26.6224 51.3469 26.362C50.9469 26.1013 50.4114 26.2146 50.1511 26.6147L48.7628 28.7473L47.3587 26.5968C47.0974 26.1971 46.5623 26.0849 46.1624 26.3456C45.7628 26.6066 45.6503 27.1421 45.9112 27.5418L47.899 30.5861Z"
            fill="white" />
        <path
            d="M34.6189 33.7344C34.6586 34.8788 36.3082 34.8779 36.3474 33.7344V31.6989C36.7124 31.6971 37.1077 31.6954 37.3389 31.6954C41.03 31.544 41.0282 26.3557 37.3389 26.2051H35.4832C35.0179 26.1959 34.6083 26.6069 34.6189 27.072V33.7344ZM37.3389 27.9336C37.9099 27.9336 38.3924 28.3992 38.3924 28.9502C38.3924 29.5013 37.9099 29.9668 37.3389 29.9668C37.1092 29.9668 36.7186 29.9684 36.3556 29.9703C36.351 29.1128 36.3526 28.8169 36.35 27.9335H37.3389V27.9336Z"
            fill="white" />
        <path
            d="M17.1699 13.6553C16.3121 13.6553 15.6143 14.3531 15.6143 15.2109V19.8203C15.6143 20.6781 16.3121 21.376 17.1699 21.376H24.3145C25.1723 21.376 25.8701 20.6781 25.8701 19.8203V15.2109C25.8701 14.3531 25.1723 13.6553 24.3145 13.6553H17.1699ZM24.1416 19.6475H17.3428V15.3838H24.1416V19.6475Z"
            fill="white" />
        <path
            d="M31.5632 16.6017V17.9845C31.6028 19.1289 33.2525 19.1279 33.2917 17.9845V16.6017C33.2522 15.4573 31.6024 15.4582 31.5632 16.6017Z"
            fill="white" />
        <path
            d="M46.6822 18.8487C47.1596 18.8487 47.5464 18.4619 47.5464 17.9845V16.6017C47.5068 15.4573 45.8571 15.4582 45.8179 16.6017V17.9845C45.8179 18.4619 46.2049 18.8487 46.6822 18.8487Z"
            fill="white" />
        <path
            d="M50.6273 17.9845V16.6017C50.5876 15.4573 48.9379 15.4582 48.8987 16.6017V17.9845C48.9383 19.1289 50.5881 19.1281 50.6273 17.9845Z"
            fill="white" />
        <path
            d="M37.765 17.9845V16.6017C37.7253 15.4573 36.0756 15.4582 36.0364 16.6017V17.9845C36.076 19.1289 37.7258 19.1281 37.765 17.9845Z"
            fill="white" />
        <path
            d="M40.1661 18.8487C40.6435 18.8487 41.0303 18.4619 41.0303 17.9845V16.6017C40.9907 15.4573 39.341 15.4582 39.3018 16.6017V17.9845C39.3018 18.4619 39.6887 18.8487 40.1661 18.8487Z"
            fill="white" />
    </g>
    <defs>
        <clipPath id="clip0_17_38">
            <rect width="59" height="59" fill="white" />
        </clipPath>
    </defs>
</svg>