<svg width="49" height="44" viewBox="0 0 59 54" fill="none" xmlns="http://www.w3.org/2000/svg">
    <path
        d="M56.3182 0H2.68182C1.97056 0 1.28842 0.282025 0.785486 0.784032C0.282548 1.28604 0 1.96691 0 2.67685V24.0917C0 24.8016 0.282548 25.4825 0.785486 25.9845C1.28842 26.4865 1.97056 26.7685 2.68182 26.7685H10.7273V50.8602C10.7273 51.5701 11.0098 52.251 11.5128 52.753C12.0157 53.255 12.6978 53.537 13.4091 53.537H45.5909C46.3022 53.537 46.9843 53.255 47.4872 52.753C47.9902 52.251 48.2727 51.5701 48.2727 50.8602V26.7685H56.3182C57.0294 26.7685 57.7116 26.4865 58.2145 25.9845C58.7175 25.4825 59 24.8016 59 24.0917V2.67685C59 1.96691 58.7175 1.28604 58.2145 0.784032C57.7116 0.282025 57.0294 0 56.3182 0ZM16.0909 48.1833V42.8296C17.5134 42.8296 18.8777 43.3937 19.8836 44.3977C20.8895 45.4017 21.4545 46.7634 21.4545 48.1833H16.0909ZM42.9091 48.1833H37.5455C37.5455 46.7634 38.1106 45.4017 39.1164 44.3977C40.1223 43.3937 41.4866 42.8296 42.9091 42.8296V48.1833ZM42.9091 37.4759C40.064 37.4759 37.3355 38.604 35.3238 40.6121C33.312 42.6201 32.1818 45.3436 32.1818 48.1833H26.8182C26.8182 45.3436 25.688 42.6201 23.6762 40.6121C21.6645 38.604 18.936 37.4759 16.0909 37.4759V16.0611H42.9091V37.4759ZM53.6364 21.4148H48.2727V13.3843C48.2727 12.6743 47.9902 11.9934 47.4872 11.4914C46.9843 10.9894 46.3022 10.7074 45.5909 10.7074H13.4091C12.6978 10.7074 12.0157 10.9894 11.5128 11.4914C11.0098 11.9934 10.7273 12.6743 10.7273 13.3843V21.4148H5.36364V5.3537H53.6364V21.4148ZM29.5 34.7991C31.0912 34.7991 32.6467 34.3281 33.9698 33.4457C35.2929 32.5633 36.3241 31.3091 36.933 29.8417C37.542 28.3743 37.7013 26.7596 37.3909 25.2018C37.0804 23.6441 36.3142 22.2132 35.189 21.0901C34.0638 19.967 32.6303 19.2021 31.0696 18.8923C29.5089 18.5824 27.8913 18.7414 26.4211 19.3493C24.951 19.9571 23.6945 20.9864 22.8104 22.307C21.9264 23.6276 21.4545 25.1802 21.4545 26.7685C21.4545 28.8984 22.3022 30.941 23.811 32.447C25.3198 33.953 27.3662 34.7991 29.5 34.7991ZM29.5 24.0917C30.0304 24.0917 30.5489 24.2487 30.9899 24.5428C31.431 24.8369 31.7747 25.255 31.9777 25.7441C32.1807 26.2333 32.2338 26.7715 32.1303 27.2907C32.0268 27.81 31.7714 28.287 31.3963 28.6613C31.0213 29.0357 30.5434 29.2906 30.0232 29.3939C29.503 29.4972 28.9638 29.4442 28.4737 29.2416C27.9837 29.039 27.5648 28.6959 27.2702 28.2557C26.9755 27.8155 26.8182 27.2979 26.8182 26.7685C26.8182 26.0586 27.1007 25.3777 27.6037 24.8757C28.1066 24.3737 28.7887 24.0917 29.5 24.0917Z"
        fill="white" />
</svg>