<svg width="91" height="91" viewBox="0 0 91 91" fill="none" xmlns="http://www.w3.org/2000/svg">
    <g clip-path="url(#clip0_21_216)">
        <path
            d="M71.9643 4.08594H5.1072C2.291 4.08594 0 6.37693 0 9.19296V48.193C0 51.0092 2.291 53.3002 5.1072 53.3002H11.6071V50.5144H5.1072C3.82715 50.5144 2.78581 49.4731 2.78581 48.193V31.0145H74.2859V35.3787H77.0715V9.19296C77.0715 6.37693 74.7805 4.08594 71.9643 4.08594ZM74.2857 28.2288H2.78563V19.8718H74.2857V28.2288ZM74.2857 17.086H2.78563V9.19296C2.78563 7.91274 3.82698 6.87157 5.10702 6.87157H71.9641C73.2443 6.87157 74.2855 7.91291 74.2855 9.19296V17.086H74.2857Z"
            fill="#246ED0" />
        <path
            d="M85.8928 37.7004H19.0357C16.2195 37.7004 13.9285 39.9914 13.9285 42.8076V81.8077C13.9285 84.6239 16.2195 86.9149 19.0357 86.9149H85.8928C88.709 86.9149 91 84.6239 91 81.8077V42.8076C91 39.9914 88.709 37.7004 85.8928 37.7004ZM88.2143 81.8077C88.2143 83.0879 87.173 84.1291 85.8929 84.1291H19.0357C17.7556 84.1291 16.7143 83.0877 16.7143 81.8077V42.8076C16.7143 41.5274 17.7556 40.4862 19.0357 40.4862H85.8928C87.1728 40.4862 88.2142 41.5276 88.2142 42.8076V81.8077H88.2143Z"
            fill="#246ED0" />
        <path d="M33.15 60.4497H28.1357V64.164H33.15V60.4497Z" fill="#246ED0" />
        <path d="M21.3571 55.9927V68.6213H39.9285V55.9927H21.3571ZM37.1429 65.8354H24.1429V58.7783H37.1429V65.8354Z"
            fill="#246ED0" />
        <path d="M82.1785 55.9927H76.6071V58.7783H82.1785V55.9927Z" fill="#246ED0" />
        <path d="M72.893 55.9927H43.1787V58.7783H72.893V55.9927Z" fill="#246ED0" />
        <path d="M63.6073 61.5647H43.1787V64.3503H63.6073V61.5647Z" fill="#246ED0" />
        <path
            d="M79.3921 69.2712C78.3056 69.2712 77.2489 69.5643 76.3269 70.1091C75.4284 69.5777 74.3817 69.2712 73.2643 69.2712C69.9362 69.2712 67.2286 71.979 67.2286 75.3069C67.2286 78.6348 69.9364 81.3426 73.2643 81.3426C74.3817 81.3426 75.4284 81.0364 76.3269 80.5048C77.2489 81.0495 78.3056 81.3426 79.3921 81.3426C82.7201 81.3426 85.4277 78.6348 85.4277 75.3069C85.4277 71.979 82.72 69.2712 79.3921 69.2712ZM73.2641 78.557C71.4722 78.557 70.0141 77.099 70.0141 75.3069C70.0141 73.5148 71.4722 72.0569 73.2641 72.0569C75.0561 72.0569 76.5142 73.5148 76.5142 75.3069C76.5142 77.099 75.0561 78.557 73.2641 78.557ZM79.3921 78.557C79.0656 78.557 78.7451 78.5054 78.4383 78.411C78.9849 77.5035 79.3 76.4414 79.3 75.3071C79.3 74.1728 78.9849 73.1107 78.4383 72.2031C78.7449 72.1089 79.0656 72.0572 79.3921 72.0572C81.184 72.0572 82.6421 73.5152 82.6421 75.3073C82.6421 77.0994 81.184 78.557 79.3921 78.557Z"
            fill="#246ED0" />
    </g>
    <defs>
        <clipPath id="clip0_21_216">
            <rect width="91" height="91" fill="white" />
        </clipPath>
    </defs>
</svg>