<svg width="61" height="91" viewBox="0 0 61 91" fill="none" xmlns="http://www.w3.org/2000/svg">
    <path
        d="M30.4965 67.5162C39.4132 67.5162 46.6416 60.2877 46.6416 51.371C46.6416 42.4543 39.4132 35.2258 30.4965 35.2258C21.5798 35.2258 14.3513 42.4543 14.3513 51.371C14.3513 60.2877 21.5798 67.5162 30.4965 67.5162Z"
        fill="#0057FF" fill-opacity="0.47" />
    <path
        d="M60.4986 22.4535L56.9159 14.6275V7.33871C56.9159 3.29215 53.6237 0 49.5771 0H11.4159C7.3693 0 4.07715 3.29215 4.07715 7.33871V14.6319L0.448895 22.5621C-0.279105 24.5656 -0.116186 26.7892 0.898024 28.6635C1.63336 30.0241 2.74151 31.0486 4.07715 31.6577V83.6613C4.07715 87.7079 7.3693 91 11.4159 91H49.5771C53.6237 91 56.9159 87.7079 56.9159 83.6613V31.6577C58.2515 31.0486 59.3596 30.0241 60.095 28.6635C61.1077 26.7892 61.2721 24.5656 60.4986 22.4535ZM11.4159 2.93548H49.5771C52.0048 2.93548 53.9804 4.91106 53.9804 7.33871V10.2742H7.01264V7.33871C7.01264 4.91106 8.98822 2.93548 11.4159 2.93548ZM53.9804 76.3226H7.01264V32.2903C9.41093 32.2903 11.5436 31.1337 12.8836 29.3504C14.2237 31.1337 16.3563 32.2903 18.7546 32.2903C21.1529 32.2903 23.2855 31.1337 24.6255 29.3504C25.9656 31.1337 28.0982 32.2903 30.4965 32.2903C32.8948 32.2903 35.0274 31.1337 36.3675 29.3504C37.7075 31.1337 39.8402 32.2903 42.2384 32.2903C44.6367 32.2903 46.7694 31.1337 48.1094 29.3504C49.4495 31.1337 51.5821 32.2903 53.9804 32.2903V76.3226ZM24.4538 13.2097L23.1666 24.7902L23.1651 24.9516H23.1578C23.1578 27.3793 21.1822 29.3548 18.7546 29.3548C16.3636 29.3548 14.4233 27.438 14.3631 25.0617L16.9962 13.2097H24.4538ZM33.5861 13.2097L34.8953 24.9942C34.8718 27.4027 32.9095 29.3548 30.4965 29.3548C28.0835 29.3548 26.1212 27.4027 26.0977 24.9942L27.4069 13.2097H33.5861ZM46.6299 25.0617C46.5697 27.438 44.6294 29.3548 42.2384 29.3548C39.8108 29.3548 37.8352 27.3793 37.8352 24.9516L36.5392 13.2097H43.9968L46.6299 25.0617ZM3.47978 27.2662C2.8648 26.1302 2.76646 24.7814 3.16275 23.6747L7.95493 13.2097H13.9888L11.4496 24.6331L11.4437 24.9516H11.4159C11.4159 27.3793 9.44028 29.3548 7.01264 29.3548C6.66919 29.3548 6.32867 29.3167 6.00283 29.2389C4.92698 28.9864 4.03165 28.2849 3.47978 27.2662ZM49.5771 88.0645H11.4159C8.98822 88.0645 7.01264 86.0889 7.01264 83.6613V79.2581H53.9804V83.6613C53.9804 86.0889 52.0048 88.0645 49.5771 88.0645ZM57.5132 27.2662C56.9614 28.2849 56.066 28.9864 54.9887 29.2389C54.6643 29.3167 54.3238 29.3548 53.9804 29.3548C51.5527 29.3548 49.5771 27.3793 49.5771 24.9516L46.9998 13.2097H53.0396L57.7862 23.5661C58.228 24.7814 58.1282 26.1302 57.5132 27.2662Z"
        fill="black" />
    <path d="M49.5772 70.4517H11.4159V73.3871H49.5772V70.4517Z" fill="black" />
    <path d="M39.303 82.1936H21.6901V85.1291H39.303V82.1936Z" fill="black" />
    <path
        d="M30.4965 55.7743C29.6863 55.7743 29.0287 55.1168 29.0287 54.3066H26.0933C26.0933 56.2176 27.3247 57.8321 29.0287 58.4398V61.6453H31.9642V58.4398C33.6683 57.8321 34.8997 56.2176 34.8997 54.3066C34.8997 51.879 32.9241 49.9034 30.4965 49.9034C29.6863 49.9034 29.0287 49.2458 29.0287 48.4356C29.0287 47.6254 29.6863 46.9679 30.4965 46.9679C31.3067 46.9679 31.9642 47.6254 31.9642 48.4356H34.8997C34.8997 46.5246 33.6683 44.9101 31.9642 44.3025V41.0969H29.0287V44.3025C27.3247 44.9101 26.0933 46.5246 26.0933 48.4356C26.0933 50.8633 28.0688 52.8389 30.4965 52.8389C31.3067 52.8389 31.9642 53.4964 31.9642 54.3066C31.9642 55.1168 31.3067 55.7743 30.4965 55.7743Z"
        fill="black" />
    <path d="M40.7707 49.9031H37.8352V52.8386H40.7707V49.9031Z" fill="black" />
    <path d="M23.1578 49.9031H20.2223V52.8386H23.1578V49.9031Z" fill="black" />
</svg>