<svg width="62" height="91" viewBox="0 0 62 91" fill="none" xmlns="http://www.w3.org/2000/svg">
    <path
        d="M60.8113 67.8402H51.3683C51.1305 67.8402 50.8989 67.9166 50.7077 68.0581C50.5165 68.1997 50.3759 68.3989 50.3065 68.6264L49.5261 71.1866C48.9571 70.967 48.4322 70.6471 47.9763 70.242L46.3923 68.8319C46.3696 68.8118 46.3461 68.7923 46.3218 68.7742C44.6068 67.4771 42.5662 66.6799 40.4261 66.4709C38.2859 66.262 36.1297 66.6494 34.1961 67.5903L33.54 67.9076C32.6635 68.3301 31.7033 68.5501 30.7303 68.5515H26.0614L22.5698 66.653C21.6385 66.1188 20.5701 65.8715 19.4988 65.9423C18.4274 66.013 17.4008 66.3985 16.5478 67.0506L16.1105 66.8149C16.1021 66.8104 16.094 66.8062 16.0857 66.8021C14.5133 66.0052 12.4822 66.4816 11.2046 67.8145L11.1972 67.8106C10.0793 67.2055 8.77098 67.0549 7.54479 67.3902C6.3186 67.7255 5.26901 68.5209 4.6146 69.6107C4.46869 69.8531 4.42083 70.142 4.48079 70.4184C4.54075 70.6949 4.70401 70.938 4.93721 71.0981L21.479 82.456C21.5223 82.4857 21.5677 82.5123 21.6148 82.5355C24.0609 83.74 26.8282 84.1303 29.512 83.6495L39.0737 81.8889C39.0972 81.8848 39.1203 81.8796 39.1434 81.8739C39.7393 81.723 40.3701 81.8031 40.9093 82.0981L45.3446 84.902L43.9226 89.5663C43.872 89.7322 43.861 89.9077 43.8905 90.0786C43.92 90.2495 43.9891 90.4112 44.0923 90.5506C44.1955 90.6899 44.33 90.8032 44.4849 90.8812C44.6398 90.9593 44.8108 90.9999 44.9842 90.9999H58.2576C58.5287 90.9999 58.7904 90.9008 58.9933 90.7211C59.1963 90.5414 59.3265 90.2936 59.3593 90.0245L61.913 69.0846C61.932 68.9287 61.9177 68.7705 61.871 68.6205C61.8243 68.4705 61.7463 68.3321 61.6422 68.2145C61.5381 68.0969 61.4101 68.0027 61.2669 67.9383C61.1236 67.8738 60.9683 67.8404 60.8113 67.8404V67.8402ZM21.4705 68.5802L21.4968 68.595L22.1914 68.9725C21.8239 69.1205 21.4725 69.3055 21.1425 69.5247L18.8713 68.3027C19.3001 68.165 19.753 68.1188 20.2007 68.1668C20.6485 68.2148 21.0812 68.3562 21.471 68.5817L21.4705 68.5802ZM15.0716 68.7751L19.5036 71.1633C19.3202 71.439 19.1606 71.7298 19.0265 72.0327L13.3089 68.9501C13.8742 68.6129 14.5527 68.5199 15.0716 68.7766V68.7751ZM42.0676 80.2044C42.051 80.1937 42.0338 80.1833 42.0164 80.1737C40.9899 79.5973 39.7829 79.432 38.6392 79.7113L29.1126 81.4651C26.9248 81.8568 24.6691 81.5468 22.6681 80.5794L7.2221 69.974C7.63813 69.664 8.13412 69.4795 8.65158 69.4422C9.16904 69.4048 9.68638 69.5163 10.1426 69.7633L18.013 74.0092L18.5309 74.282C18.5309 74.319 18.5284 74.3544 18.5284 74.391C18.5284 74.6854 18.6453 74.9677 18.8534 75.1758C19.0616 75.3839 19.3439 75.5009 19.6383 75.5009C19.6549 75.5009 19.6717 75.5009 19.6886 75.4998L25.1154 75.2543C26.6807 75.1836 28.2492 75.256 29.8013 75.4707C29.9457 75.4907 30.0926 75.4821 30.2336 75.4453C30.3747 75.4085 30.5071 75.3443 30.6233 75.2564C30.7396 75.1684 30.8373 75.0584 30.9111 74.9327C30.9848 74.8069 31.033 74.6679 31.053 74.5235C31.073 74.3792 31.0644 74.2323 31.0276 74.0912C30.9908 73.9502 30.9266 73.8178 30.8386 73.7015C30.7507 73.5853 30.6407 73.4875 30.5149 73.4138C30.3892 73.3401 30.2502 73.2918 30.1058 73.2719C28.4196 73.0388 26.7156 72.9601 25.0151 73.0367L20.9422 73.2217C21.1871 72.5074 21.649 71.8874 22.2632 71.4482C22.8774 71.0089 23.6135 70.7723 24.3686 70.7715H30.7309C32.0385 70.7697 33.329 70.474 34.5069 69.9061L35.163 69.5889C36.7228 68.8299 38.4616 68.5154 40.1885 68.68C41.9154 68.8445 43.5635 69.4818 44.9519 70.5217L46.5009 71.9006C47.1966 72.5181 48.0035 72.9974 48.8787 73.3127L46.0164 82.7004L42.0676 80.2044ZM57.2748 88.7802H46.483L52.1902 70.06H59.5576L57.2748 88.7802Z"
        fill="#246ED0" />
    <path
        d="M11.7252 34.3267V32.3513H12.8089C13.4916 32.3517 14.1733 32.4033 14.8483 32.5054L11.6503 36.8661C9.42675 39.8831 8.2877 43.5629 8.41791 47.3086C8.54812 51.0542 9.93997 54.646 12.3677 57.5014C14.2133 59.6863 16.5138 61.4419 19.1084 62.6452C21.703 63.8486 24.5292 64.4708 27.3893 64.4683C30.2494 64.4707 33.0755 63.8485 35.6701 62.6451C38.2647 61.4417 40.5653 59.6863 42.4109 57.5014C44.8386 54.646 46.2304 51.0542 46.3606 47.3086C46.4908 43.5629 45.3518 39.8832 43.1283 36.8661L39.8998 32.4635C39.8998 32.4364 39.9039 32.4101 39.9039 32.3829C39.9043 31.6479 39.6876 30.9291 39.2808 30.3168C39.7766 30.0241 40.1984 29.6212 40.5136 29.1394C40.8288 28.6576 41.0291 28.1098 41.0988 27.5383C41.1685 26.9667 41.1059 26.3868 40.9158 25.8434C40.7256 25.2999 40.4131 24.8075 40.0023 24.4041C40.7144 23.6919 41.1178 22.7282 41.1256 21.7211C41.1334 20.714 40.7449 19.7443 40.0439 19.0211C40.4923 18.5834 40.8183 18.0358 40.9894 17.433C41.1605 16.8301 41.1708 16.193 41.0192 15.5849C40.8676 14.9769 40.5594 14.4191 40.1253 13.9672C39.6911 13.5152 39.1463 13.1848 38.5448 13.0089C40.3334 12.0366 41.4264 9.98107 41.4264 7.30124V7.1995C41.4264 6.90514 41.3095 6.62284 41.1014 6.41469C40.8932 6.20655 40.6109 6.08962 40.3165 6.08962H36.7782C37.2558 4.91653 37.8113 3.77666 38.4408 2.67763C38.5868 2.42265 38.6636 2.13393 38.6635 1.84013C38.6634 1.54632 38.5865 1.25764 38.4405 1.00272C38.2944 0.747804 38.0842 0.535514 37.8307 0.386914C37.5773 0.238314 37.2894 0.158569 36.9956 0.155592L22.2675 0.000577383C22.0313 -0.00559525 21.7965 0.0377825 21.5781 0.127916C21.3597 0.218049 21.1626 0.352937 20.9995 0.52389C20.7536 0.789215 20.6023 1.12826 20.5688 1.48842C20.5354 1.84858 20.6217 2.20971 20.8145 2.51577L21.5093 3.61845C22.0079 4.41373 22.4566 5.23923 22.8528 6.09017H21.8965C17.9839 6.09017 17.0179 8.9905 16.4989 10.5482C16.4175 10.8151 16.32 11.0767 16.207 11.3318C15.0532 12.0377 14.0013 12.381 12.9938 12.381H11.7252V10.0044C11.7252 9.71002 11.6083 9.42772 11.4002 9.21957C11.192 9.01143 10.9097 8.89449 10.6154 8.89449H1.10989C0.815528 8.89449 0.533224 9.01143 0.32508 9.21957C0.116935 9.42772 0 9.71002 0 10.0044V34.3267C0 34.621 0.116935 34.9033 0.32508 35.1115C0.533224 35.3196 0.815528 35.4366 1.10989 35.4366H10.6154C10.9097 35.4366 11.192 35.3196 11.4002 35.1115C11.6083 34.9033 11.7252 34.621 11.7252 34.3267ZM41.338 38.1789C43.2654 40.7943 44.2527 43.9841 44.1398 47.231C44.0269 50.4779 42.8205 53.5914 40.7161 56.0666C39.0773 58.0035 37.036 59.5598 34.7343 60.6273C32.4327 61.6948 29.9261 62.2478 27.3889 62.2478C24.8518 62.2478 22.3451 61.6948 20.0435 60.6273C17.7419 59.5598 15.7006 58.0035 14.0617 56.0666C11.9574 53.5914 10.7509 50.4779 10.638 47.231C10.5252 43.9841 11.5126 40.7943 13.44 38.1789L17.1855 33.0714C18.1295 33.3901 19.0358 33.8109 19.8885 34.3263C17.1569 36.633 17.3159 40.2121 17.8731 41.9764C17.9629 42.2557 18.1596 42.488 18.4202 42.6227C18.6808 42.7574 18.9842 42.7834 19.2639 42.6951C19.5436 42.6067 19.777 42.4113 19.9131 42.1514C20.0491 41.8915 20.0767 41.5883 19.9898 41.3081C19.7901 40.5567 19.7266 39.7755 19.8025 39.0017C19.8596 38.2463 20.1125 37.5187 20.5363 36.8907C20.9601 36.2627 21.5401 35.7558 22.2192 35.4201C24.1871 36.0646 26.2763 36.1371 28.4126 36.1371H30.9988L31.263 36.6138C32.2543 38.4003 32.7092 40.4349 32.573 42.4735L32.5507 42.8133C32.541 42.9587 32.5602 43.1046 32.6069 43.2427C32.6537 43.3807 32.7272 43.5082 32.8232 43.6178C32.9193 43.7275 33.036 43.8171 33.1666 43.8817C33.2973 43.9462 33.4394 43.9844 33.5849 43.994C33.6097 43.9957 33.6345 43.9964 33.6589 43.9964C33.9403 43.9961 34.211 43.889 34.4164 43.6967C34.6218 43.5044 34.7465 43.2413 34.7653 42.9605L34.7878 42.6207C34.9336 40.4318 34.5156 38.242 33.5738 36.2607C34.2147 36.5048 36.1574 37.5626 36.5254 41.4701C36.5512 41.7451 36.6786 42.0005 36.8828 42.1865C37.0869 42.3725 37.353 42.4757 37.6291 42.476C37.6639 42.476 37.6992 42.4744 37.7346 42.4711C38.0276 42.4435 38.2977 42.3006 38.4854 42.0738C38.6732 41.8471 38.7631 41.5551 38.7355 41.262C38.5024 38.7879 37.7335 37.1502 36.8672 36.0672C37.6634 35.91 38.3874 35.4994 38.9309 34.8966L41.338 38.1789ZM39.1306 8.30939C38.9344 9.60279 38.2573 11.4073 36.0087 11.4073H35.2007C35.4028 10.3608 35.6634 9.32647 35.9815 8.30921H39.1306V8.30939ZM24.156 2.23978C24.1965 2.26329 24.2385 2.28423 24.2816 2.30249C26.0326 3.02836 27.4402 5.29697 27.1858 6.97771C27.1589 7.13698 27.1671 7.30021 27.2097 7.456C27.2524 7.61179 27.3286 7.75638 27.433 7.87968C27.5373 8.00299 27.6673 8.10203 27.8139 8.16989C27.9605 8.23775 28.1201 8.2728 28.2816 8.27258C28.546 8.27224 28.8016 8.17755 29.0023 8.00555C29.2031 7.83355 29.3359 7.59554 29.3767 7.33436C29.642 5.64215 28.9831 3.74146 27.7859 2.27752L31.2941 2.31451C30.9202 3.40128 30.5924 4.92146 30.8762 6.49676C30.9223 6.75274 31.0568 6.98441 31.2563 7.15132C31.4557 7.31823 31.7075 7.40979 31.9676 7.41001C32.0781 7.4099 32.188 7.3935 32.2937 7.36136C32.5556 7.27473 32.7771 7.09601 32.9172 6.85837C33.0573 6.62074 33.1063 6.34034 33.0553 6.06927C32.8004 4.58664 33.3316 3.09328 33.6683 2.33948L36.0762 2.36483C34.4415 5.42064 33.3388 8.73244 32.8155 12.1583L32.6936 12.9506L27.9304 13.039C27.8133 13.0288 27.6995 12.9951 27.5957 12.94C27.4919 12.8849 27.4003 12.8095 27.3262 12.7182C26.6583 8.99268 25.2768 5.43126 23.2577 2.22979L24.156 2.23978ZM11.7252 14.6006H12.9938C14.4552 14.6006 15.9215 14.1287 17.4741 13.1578C18.0995 12.7669 18.3337 12.0636 18.6051 11.2493C19.1785 9.52787 19.7501 8.30921 21.8965 8.30921H23.7722C24.1693 9.4006 24.5025 10.5184 24.7905 11.6503V12.1433C24.7905 12.1836 24.7927 12.2238 24.7971 12.2637C24.9773 13.9153 26.3865 15.259 27.9383 15.259H27.9589L37.5409 15.081C37.9054 15.0822 38.2545 15.2281 38.5115 15.4867C38.7684 15.7453 38.9121 16.0954 38.9109 16.4599C38.9097 16.8244 38.7638 17.1735 38.5052 17.4304C38.2466 17.6873 37.8965 17.831 37.532 17.8298L33.6206 17.8419C33.3262 17.8419 33.0439 17.9588 32.8358 18.1669C32.6276 18.3751 32.5107 18.6574 32.5107 18.9518C32.5107 19.2461 32.6276 19.5284 32.8358 19.7366C33.0439 19.9447 33.3262 20.0616 33.6206 20.0616H37.278C37.7099 20.0616 38.1241 20.2332 38.4294 20.5386C38.7348 20.8439 38.9063 21.2581 38.9063 21.6899C38.9063 22.1218 38.7348 22.536 38.4294 22.8413C38.1241 23.1467 37.7099 23.3182 37.278 23.3182H33.6215C33.3272 23.3182 33.0448 23.4352 32.8367 23.6433C32.6286 23.8515 32.5116 24.1338 32.5116 24.4281C32.5116 24.7225 32.6286 25.0048 32.8367 25.2129C33.0448 25.4211 33.3272 25.538 33.6215 25.538H37.3609C37.7679 25.5425 38.1567 25.7073 38.4429 25.9967C38.7292 26.286 38.8897 26.6766 38.8897 27.0836C38.8897 27.4907 38.7292 27.8812 38.4429 28.1706C38.1567 28.46 37.7679 28.6248 37.3609 28.6292H31.9687C31.6743 28.6292 31.392 28.7462 31.1839 28.9543C30.9757 29.1625 30.8588 29.4448 30.8588 29.7391C30.8588 30.0335 30.9757 30.3158 31.1839 30.5239C31.392 30.7321 31.6743 30.849 31.9687 30.849H36.1493C36.5533 30.8535 36.9393 31.0171 37.2234 31.3043C37.5075 31.5916 37.6669 31.9793 37.6669 32.3834C37.6669 32.7874 37.5075 33.1751 37.2234 33.4624C36.9393 33.7496 36.5533 33.9132 36.1493 33.9177H28.4126C25.6952 33.9177 23.2766 33.8126 21.1957 32.5216C18.6776 30.9587 15.7726 30.1308 12.8089 30.1315H11.7252V14.6006ZM9.50546 33.2168H2.21978V11.1143H9.50546V33.2168Z"
        fill="#246ED0" />
    <path
        d="M27.9392 47.4639C28.311 47.4642 28.6676 47.6121 28.9305 47.875C29.1934 48.1379 29.3413 48.4944 29.3417 48.8662C29.3417 49.1606 29.4587 49.4429 29.6668 49.651C29.875 49.8592 30.1573 49.9761 30.4516 49.9761C30.746 49.9761 31.0283 49.8592 31.2364 49.651C31.4446 49.4429 31.5615 49.1606 31.5615 48.8662C31.5602 48.1002 31.3165 47.3542 30.8651 46.7352C30.4138 46.1162 29.7781 45.656 29.0491 45.4206V44.9744C29.0491 44.68 28.9322 44.3977 28.724 44.1896C28.5159 43.9814 28.2336 43.8645 27.9392 43.8645C27.6448 43.8645 27.3625 43.9814 27.1544 44.1896C26.9463 44.3977 26.8293 44.68 26.8293 44.9744V45.4206C26.0075 45.6849 25.3071 46.2341 24.8544 46.9692C24.4017 47.7043 24.2265 48.5769 24.3604 49.4298C24.4943 50.2826 24.9285 51.0596 25.5847 51.6206C26.2409 52.1816 27.0759 52.4897 27.9392 52.4895C28.1233 52.4882 28.3059 52.5233 28.4764 52.5926C28.647 52.662 28.8022 52.7642 28.9333 52.8935C29.0643 53.0229 29.1686 53.1767 29.2402 53.3464C29.3118 53.516 29.3492 53.6981 29.3504 53.8822C29.3516 54.0663 29.3166 54.2488 29.2473 54.4194C29.1779 54.59 29.0757 54.7452 28.9463 54.8762C28.817 55.0073 28.6631 55.1116 28.4935 55.1831C28.3239 55.2547 28.1418 55.2922 27.9577 55.2934C27.9516 55.2934 27.9459 55.2934 27.9392 55.2934C27.9326 55.2934 27.9276 55.2934 27.9207 55.2934C27.5521 55.2884 27.2003 55.1386 26.9412 54.8763C26.6821 54.6141 26.5366 54.2604 26.5361 53.8918C26.5361 53.5974 26.4192 53.3151 26.211 53.107C26.0029 52.8988 25.7206 52.7819 25.4262 52.7819C25.1319 52.7819 24.8496 52.8988 24.6414 53.107C24.4333 53.3151 24.3163 53.5974 24.3163 53.8918C24.3174 54.658 24.5611 55.4042 25.0124 56.0234C25.4637 56.6426 26.0995 57.103 26.8286 57.3386V57.8989C26.8286 58.1932 26.9455 58.4755 27.1537 58.6837C27.3618 58.8918 27.6441 59.0088 27.9385 59.0088C28.2328 59.0088 28.5151 58.8918 28.7233 58.6837C28.9314 58.4755 29.0484 58.1932 29.0484 57.8989V57.3386C29.8702 57.0743 30.5706 56.5251 31.0233 55.79C31.476 55.0548 31.6511 54.1822 31.5172 53.3293C31.3833 52.4765 30.9492 51.6995 30.293 51.1385C29.6368 50.5775 28.8018 50.2694 27.9385 50.2697C27.5693 50.2654 27.2167 50.1158 26.9572 49.8533C26.6976 49.5907 26.552 49.2364 26.552 48.8672C26.552 48.4981 26.6976 48.1438 26.9572 47.8812C27.2167 47.6187 27.5693 47.469 27.9385 47.4648L27.9392 47.4639Z"
        fill="#246ED0" />
</svg>