<svg width="49" height="44" viewBox="0 0 59 54" fill="none" xmlns="http://www.w3.org/2000/svg">
    <path
        d="M29.5 27C27.9088 27 26.3533 26.5249 25.0302 25.6349C23.7071 24.7449 22.6759 23.4798 22.067 21.9997C21.458 20.5197 21.2987 18.891 21.6091 17.3198C21.9196 15.7485 22.6858 14.3052 23.811 13.1724C24.9362 12.0396 26.3697 11.2682 27.9304 10.9556C29.4911 10.6431 31.1087 10.8035 32.5789 11.4166C34.049 12.0296 35.3055 13.0678 36.1896 14.3999C37.0736 15.7319 37.5455 17.298 37.5455 18.9C37.5455 21.0483 36.6978 23.1085 35.189 24.6276C33.6802 26.1466 31.6338 27 29.5 27ZM29.5 16.2C28.9696 16.2 28.4511 16.3584 28.0101 16.655C27.569 16.9517 27.2253 17.3734 27.0223 17.8668C26.8193 18.3601 26.7662 18.903 26.8697 19.4267C26.9732 19.9505 27.2286 20.4316 27.6037 20.8092C27.9787 21.1868 28.4566 21.4439 28.9768 21.5481C29.497 21.6523 30.0363 21.5988 30.5263 21.3945C31.0163 21.1901 31.4352 20.8441 31.7299 20.4C32.0245 19.956 32.1818 19.434 32.1818 18.9C32.1818 18.1839 31.8993 17.4972 31.3963 16.9908C30.8934 16.4845 30.2113 16.2 29.5 16.2ZM27.5959 33.183C27.851 32.9372 28.1517 32.7445 28.4809 32.616C28.8019 32.4732 29.149 32.3994 29.5 32.3994C29.851 32.3994 30.1981 32.4732 30.5191 32.616C30.8483 32.7445 31.149 32.9372 31.4041 33.183L37.5455 39.258C38.0647 39.7807 38.3564 40.4897 38.3564 41.229C38.3564 41.9683 38.0647 42.6773 37.5455 43.2C37.0262 43.7227 36.322 44.0164 35.5877 44.0164C34.8534 44.0164 34.1492 43.7227 33.63 43.2L32.1818 41.607V51.3C32.1818 52.0161 31.8993 52.7028 31.3963 53.2092C30.8934 53.7155 30.2113 54 29.5 54C28.7887 54 28.1066 53.7155 27.6037 53.2092C27.1007 52.7028 26.8182 52.0161 26.8182 51.3V41.607L25.37 43.2C24.8508 43.7227 24.1466 44.0164 23.4123 44.0164C22.678 44.0164 21.9738 43.7227 21.4545 43.2C20.9353 42.6773 20.6436 41.9683 20.6436 41.229C20.6436 40.4897 20.9353 39.7807 21.4545 39.258L27.5959 33.183ZM48.2727 18.9C48.2727 19.434 48.1154 19.956 47.8208 20.4C47.5261 20.8441 47.1072 21.1901 46.6172 21.3945C46.1272 21.5988 45.5879 21.6523 45.0677 21.5481C44.5475 21.4439 44.0696 21.1868 43.6946 20.8092C43.3195 20.4316 43.0641 19.9505 42.9606 19.4267C42.8571 18.903 42.9103 18.3601 43.1132 17.8668C43.3162 17.3734 43.6599 16.9517 44.101 16.655C44.542 16.3584 45.0605 16.2 45.5909 16.2C46.3022 16.2 46.9843 16.4845 47.4872 16.9908C47.9902 17.4972 48.2727 18.1839 48.2727 18.9ZM50.9545 37.8L42.9091 37.8C42.1978 37.8 41.5157 37.5155 41.0128 37.0092C40.5098 36.5028 40.2273 35.8161 40.2273 35.1C40.2273 34.3839 40.5098 33.6972 41.0128 33.1908C41.5157 32.6845 42.1978 32.4 42.9091 32.4L50.9545 32.4C51.6658 32.4 52.3479 32.1155 52.8509 31.6092C53.3538 31.1028 53.6364 30.4161 53.6364 29.7L53.6364 8.1C53.6364 7.38391 53.3538 6.69716 52.8509 6.19081C52.3479 5.68446 51.6658 5.4 50.9545 5.4L8.04545 5.4C7.33419 5.4 6.65206 5.68446 6.14912 6.19081C5.64618 6.69716 5.36364 7.38391 5.36364 8.1L5.36364 29.7C5.36364 30.4161 5.64618 31.1028 6.14912 31.6092C6.65206 32.1155 7.33419 32.4 8.04545 32.4H16.0909C16.8022 32.4 17.4843 32.6845 17.9872 33.1908C18.4902 33.6972 18.7727 34.3839 18.7727 35.1C18.7727 35.8161 18.4902 36.5028 17.9872 37.0092C17.4843 37.5155 16.8022 37.8 16.0909 37.8H8.04545C5.91167 37.8 3.86527 36.9466 2.35646 35.4276C0.847644 33.9085 0 31.8483 0 29.7L0 8.1C0 5.95174 0.847644 3.89148 2.35646 2.37243C3.86527 0.85339 5.91167 0 8.04545 0L50.9545 0C53.0883 0 55.1347 0.85339 56.6435 2.37243C58.1524 3.89148 59 5.95174 59 8.1L59 29.7C59 31.8483 58.1524 33.9085 56.6435 35.4276C55.1347 36.9466 53.0883 37.8 50.9545 37.8ZM10.7273 18.9C10.7273 18.366 10.8846 17.844 11.1792 17.4C11.4739 16.9559 11.8928 16.6099 12.3828 16.4055C12.8728 16.2012 13.4121 16.1477 13.9323 16.2519C14.4525 16.3561 14.9304 16.6132 15.3054 16.9908C15.6805 17.3684 15.9359 17.8495 16.0394 18.3733C16.1429 18.897 16.0897 19.4399 15.8868 19.9332C15.6838 20.4266 15.3401 20.8483 14.899 21.145C14.458 21.4416 13.9395 21.6 13.4091 21.6C12.6978 21.6 12.0157 21.3155 11.5128 20.8092C11.0098 20.3028 10.7273 19.6161 10.7273 18.9Z"
        fill="#0B1035" fill-opacity="0.75" />
</svg>