<svg width="91" height="95" viewBox="0 0 91 95" fill="none" xmlns="http://www.w3.org/2000/svg">
    <path
        d="M33.3667 86.45H21.2333C20.8311 86.45 20.4453 86.6097 20.1609 86.8942C19.8765 87.1786 19.7167 87.5644 19.7167 87.9666C19.7167 88.3689 19.8765 88.7546 20.1609 89.0391C20.4453 89.3235 20.8311 89.4833 21.2333 89.4833H33.3667C33.7689 89.4833 34.1547 89.3235 34.4391 89.0391C34.7236 88.7546 34.8833 88.3689 34.8833 87.9666C34.8833 87.5644 34.7236 87.1786 34.4391 86.8942C34.1547 86.6097 33.7689 86.45 33.3667 86.45Z"
        fill="#246ED0" />
    <path
        d="M85.6917 28.8167H54.6V5.30833C54.5984 3.90095 54.0387 2.55166 53.0435 1.55649C52.0483 0.561325 50.699 0.00155559 49.2917 0H5.30833C3.90095 0.00155559 2.55166 0.561325 1.55649 1.55649C0.561325 2.55166 0.00155559 3.90095 0 5.30833V88.725C0.00155559 90.1324 0.561325 91.4817 1.55649 92.4768C2.55166 93.472 3.90095 94.0318 5.30833 94.0333H49.2917C50.699 94.0318 52.0483 93.472 53.0435 92.4768C54.0387 91.4817 54.5984 90.1324 54.6 88.725V66.7333H85.6917C87.099 66.7318 88.4483 66.172 89.4435 65.1768C90.4387 64.1817 90.9984 62.8324 91 61.425V34.125C90.9984 32.7176 90.4387 31.3683 89.4435 30.3732C88.4483 29.378 87.099 28.8182 85.6917 28.8167ZM34.4568 3.03333L33.6984 6.06667H20.9016L20.1432 3.03333H34.4568ZM51.5667 88.725C51.5662 89.3282 51.3263 89.9066 50.8998 90.3331C50.4732 90.7597 49.8949 90.9995 49.2917 91H5.30833C4.70512 90.9995 4.12676 90.7597 3.70022 90.3331C3.27368 89.9066 3.03384 89.3282 3.03333 88.725V5.30833C3.03384 4.70512 3.27368 4.12676 3.70022 3.70022C4.12676 3.27368 4.70512 3.03384 5.30833 3.03333H17.0151L18.2455 7.95112C18.3275 8.27924 18.5168 8.57053 18.7834 8.77869C19.05 8.98685 19.3785 9.09995 19.7167 9.1H34.8833C35.2215 9.09995 35.55 8.98685 35.8166 8.77869C36.0832 8.57053 36.2725 8.27924 36.3545 7.95112L37.5849 3.03333H49.2917C49.8949 3.03384 50.4732 3.27368 50.8998 3.70022C51.3263 4.12676 51.5662 4.70512 51.5667 5.30833V88.725ZM54.6 51.5667H59.15V57.6333H54.6V51.5667ZM87.9667 61.425C87.9662 62.0282 87.7263 62.6066 87.2998 63.0331C86.8732 63.4597 86.2949 63.6995 85.6917 63.7H54.6V60.6667H60.6667C61.0689 60.6667 61.4547 60.5069 61.7391 60.2224C62.0235 59.938 62.1833 59.5522 62.1833 59.15V50.05C62.1833 49.6478 62.0235 49.262 61.7391 48.9776C61.4547 48.6931 61.0689 48.5333 60.6667 48.5333H54.6V43.9833H87.9667V61.425ZM87.9667 40.95H54.6V37.9167H87.9667V40.95ZM87.9667 34.8833H54.6V31.85H85.6917C86.2949 31.8505 86.8732 32.0903 87.2998 32.5169C87.7263 32.9434 87.9662 33.5218 87.9667 34.125V34.8833Z"
        fill="#246ED0" />
    <path
        d="M83.4167 48.5334H69.7667C69.3644 48.5334 68.9787 48.6932 68.6942 48.9777C68.4098 49.2621 68.25 49.6479 68.25 50.0501C68.25 50.4524 68.4098 50.8381 68.6942 51.1226C68.9787 51.407 69.3644 51.5668 69.7667 51.5668H83.4167C83.8189 51.5668 84.2047 51.407 84.4891 51.1226C84.7735 50.8381 84.9333 50.4524 84.9333 50.0501C84.9333 49.6479 84.7735 49.2621 84.4891 48.9777C84.2047 48.6932 83.8189 48.5334 83.4167 48.5334Z"
        fill="#246ED0" />
    <path
        d="M83.4167 53.0833H69.7667C69.3644 53.0833 68.9787 53.243 68.6942 53.5275C68.4098 53.8119 68.25 54.1977 68.25 54.5999C68.25 55.0022 68.4098 55.3879 68.6942 55.6724C68.9787 55.9568 69.3644 56.1166 69.7667 56.1166H83.4167C83.8189 56.1166 84.2047 55.9568 84.4891 55.6724C84.7735 55.3879 84.9333 55.0022 84.9333 54.5999C84.9333 54.1977 84.7735 53.8119 84.4891 53.5275C84.2047 53.243 83.8189 53.0833 83.4167 53.0833Z"
        fill="#246ED0" />
    <path
        d="M83.4167 57.6333H77.35C76.9478 57.6333 76.562 57.7931 76.2776 58.0775C75.9932 58.362 75.8334 58.7477 75.8334 59.15C75.8334 59.5522 75.9932 59.938 76.2776 60.2224C76.562 60.5068 76.9478 60.6666 77.35 60.6666H83.4167C83.819 60.6666 84.2047 60.5068 84.4892 60.2224C84.7736 59.938 84.9334 59.5522 84.9334 59.15C84.9334 58.7477 84.7736 58.362 84.4892 58.0775C84.2047 57.7931 83.819 57.6333 83.4167 57.6333Z"
        fill="#246ED0" />
    <path
        d="M27.3 28.8167C23.7004 28.8167 20.1816 29.8841 17.1886 31.8839C14.1956 33.8837 11.8629 36.7262 10.4854 40.0518C9.10786 43.3774 8.74744 47.0368 9.44969 50.5673C10.1519 54.0977 11.8853 57.3407 14.4306 59.886C16.976 62.4313 20.2189 64.1647 23.7493 64.8669C27.2798 65.5692 30.9392 65.2088 34.2648 63.8313C37.5904 62.4537 40.4329 60.121 42.4327 57.128C44.4326 54.1351 45.5 50.6163 45.5 47.0167C45.4946 42.1914 43.5753 37.5653 40.1633 34.1533C36.7514 30.7413 32.1253 28.8221 27.3 28.8167ZM27.3 62.1833C24.3003 62.1833 21.368 61.2938 18.8738 59.6273C16.3797 57.9607 14.4357 55.592 13.2878 52.8207C12.1399 50.0493 11.8395 46.9998 12.4247 44.0578C13.0099 41.1157 14.4544 38.4133 16.5755 36.2922C18.6966 34.1711 21.3991 32.7266 24.3411 32.1414C27.2832 31.5562 30.3327 31.8565 33.104 33.0045C35.8754 34.1524 38.2441 36.0964 39.9106 38.5905C41.5771 41.0846 42.4667 44.017 42.4667 47.0167C42.4621 51.0377 40.8627 54.8927 38.0194 57.7361C35.1761 60.5794 31.321 62.1787 27.3 62.1833Z"
        fill="#246ED0" />
    <path
        d="M35.3275 41.3942L25.6409 51.0808L20.6266 47.32C20.3048 47.0786 19.9003 46.975 19.5021 47.0319C19.1039 47.0888 18.7446 47.3015 18.5033 47.6233C18.2619 47.9451 18.1583 48.3496 18.2152 48.7478C18.2721 49.146 18.4848 49.5053 18.8066 49.7467L24.8733 54.2967C25.1654 54.5157 25.5266 54.6221 25.8908 54.5962C26.255 54.5703 26.5976 54.414 26.8558 54.1558L37.4724 43.5391C37.7569 43.2547 37.9167 42.8689 37.9167 42.4667C37.9167 42.0644 37.7569 41.6786 37.4724 41.3942C37.188 41.1097 36.8022 40.95 36.4 40.95C35.9977 40.95 35.6119 41.1097 35.3275 41.3942Z"
        fill="#246ED0" />
</svg>