<svg width="32" height="32" viewBox="0 0 32 32" fill="none" xmlns="http://www.w3.org/2000/svg">
    <path
        d="M15.9999 11.0004C16.0001 9.85156 16.3957 8.73783 17.1203 7.84641C17.845 6.95498 18.8544 6.34023 19.979 6.10551C21.1036 5.87078 22.2747 6.0304 23.2954 6.55752C24.3161 7.08464 25.1242 7.94712 25.5839 8.99996L29.9999 9L25.9671 13.0328C25.7045 17.089 23.9081 20.8933 20.9425 23.6731C17.977 26.4529 14.0647 27.9999 9.99994 28C5.99994 28 4.99994 26.5 4.99994 26.5C4.99994 26.5 8.99994 25 10.9999 22C10.9999 22 2.99994 18 4.99994 7C4.99994 7 9.99994 12 15.9982 13L15.9999 11.0004Z"
        stroke="#0B1035" stroke-opacity="0.75" stroke-width="2" stroke-linecap="round" stroke-linejoin="round" />
</svg>