<svg width="80" height="80" viewBox="0 0 151 151" fill="none" xmlns="http://www.w3.org/2000/svg">
    <path
        d="M75.4273 150.879C57.5615 150.871 40.2817 144.52 26.68 132.962C13.0784 121.405 4.04278 105.396 1.19008 87.7997C-1.66262 70.2034 1.85381 52.1685 11.1101 36.9225C20.3664 21.6764 34.7584 10.2143 51.7106 4.58716C65.8225 -0.0943823 81.0086 -0.498267 95.3505 3.42652C109.692 7.35131 122.547 15.4287 132.29 26.6384C142.033 37.8482 148.228 51.6874 150.093 66.408C151.957 81.1286 149.407 96.0702 142.764 109.346C136.5 121.814 126.886 132.3 114.996 139.634C103.106 146.968 89.4064 150.861 75.4273 150.879ZM75.5684 5.10323C64.3408 5.09886 53.2729 7.75676 43.2769 12.8579C33.281 17.959 24.6432 25.3572 18.0756 34.4427C11.508 43.5283 7.19862 54.0411 5.50264 65.1145C3.80666 76.1879 4.77266 87.505 8.32101 98.1328C20.6667 135.094 60.8587 155.131 97.8958 142.818C113.834 137.502 127.359 126.707 136.055 112.36C144.751 98.0127 148.052 81.0486 145.369 64.4973C142.685 47.946 134.192 32.8854 121.406 22.0054C108.62 11.1255 92.3732 5.13476 75.5684 5.10323Z"
        fill="#D9D9D9" />
    <path
        d="M75.4273 150.879C57.5615 150.871 40.2817 144.52 26.6801 132.962C13.0784 121.405 4.04278 105.396 1.19008 87.7996C-1.66262 70.2034 1.85381 52.1685 11.1101 36.9225C20.3664 21.6764 34.7584 10.2142 51.7106 4.58715C61.0821 1.46915 70.9776 0.223709 80.8317 0.921984C90.6858 1.62026 100.305 4.24856 109.141 8.65677C117.977 13.065 125.856 19.1667 132.328 26.6135C138.8 34.0603 143.738 42.7061 146.86 52.0573C146.954 52.3317 146.994 52.6221 146.975 52.9117C146.957 53.2013 146.881 53.4844 146.752 53.7446C146.623 54.0048 146.444 54.237 146.225 54.4277C146.006 54.6185 145.751 54.7639 145.475 54.8558C145.199 54.9476 144.908 54.984 144.618 54.9629C144.327 54.9417 144.044 54.8634 143.785 54.7325C143.525 54.6015 143.294 54.4206 143.105 54.2001C142.916 53.9796 142.773 53.7238 142.683 53.4477C136.647 35.7938 123.858 21.2378 107.107 12.9546C90.3559 4.6714 71.0014 3.33313 53.2651 9.2317C35.5289 15.1303 20.8501 27.7871 12.4304 44.4414C4.01083 61.0956 2.53362 80.3961 8.32101 98.1328C20.6667 135.094 60.8587 155.131 97.8959 142.818C98.1704 142.727 98.4602 142.69 98.7489 142.711C99.0375 142.731 99.3193 142.808 99.5781 142.937C99.8369 143.066 100.068 143.245 100.257 143.463C100.447 143.681 100.592 143.934 100.683 144.208C100.775 144.482 100.811 144.771 100.791 145.059C100.77 145.347 100.693 145.628 100.563 145.887C100.434 146.145 100.255 146.375 100.036 146.564C99.8178 146.753 99.564 146.898 99.2895 146.989C91.5973 149.56 83.5394 150.873 75.4273 150.879Z"
        fill="url(#paint0_linear_0_1)" />
    <path
        d="M75.4361 142.43C63.1451 142.42 51.0952 139.026 40.6136 132.622C30.132 126.217 21.6254 117.051 16.0307 106.132C10.436 95.2129 7.97029 82.9653 8.90512 70.7379C9.83995 58.5105 14.1391 46.7777 21.3289 36.8318C28.5188 26.8859 38.3205 19.1128 49.6545 14.3686C60.9884 9.62435 73.4148 8.09312 85.5651 9.94351C97.7154 11.7939 109.118 16.9541 118.517 24.8559C127.917 32.7576 134.948 43.0942 138.836 54.7272C142.168 64.7466 143.069 75.4121 141.465 85.8466C139.86 96.2811 135.796 106.187 129.607 114.748C123.418 123.31 115.28 130.284 105.862 135.097C96.4446 139.909 86.0168 142.422 75.4361 142.43ZM75.5643 11.3516C61.9009 11.3312 48.5831 15.6348 37.5261 23.6434C26.4691 31.6519 18.2427 42.9529 14.03 55.9209C9.8173 68.889 9.83535 82.8559 14.0815 95.8131C18.3277 108.77 26.5833 120.05 37.6609 128.03C48.7386 136.01 62.0675 140.28 75.7308 140.224C89.3941 140.169 102.688 135.791 113.7 127.721C124.712 119.651 132.875 108.305 137.016 95.3137C141.156 82.3225 141.06 68.3558 136.741 55.4225C132.451 42.6119 124.239 31.4679 113.264 23.5612C102.288 15.6545 89.1019 11.3839 75.5643 11.3516Z"
        fill="#D9D9D9" />
    <path
        d="M75.4446 134.962C61.3762 134.94 47.7741 129.927 37.0687 120.821C26.3633 111.714 19.2522 99.1062 17.0061 85.2501C14.7599 71.3939 17.5251 57.1924 24.8076 45.1832C32.09 33.1739 43.4151 24.1394 56.7592 19.694C87.7561 9.38109 121.399 26.1598 131.736 57.0986C134.692 65.9942 135.49 75.4627 134.064 84.7258C132.638 93.989 129.03 102.782 123.535 110.383C118.04 117.984 110.815 124.175 102.455 128.448C94.0949 132.721 84.8378 134.953 75.4446 134.962ZM75.56 17.7236C61.2709 17.6917 47.4684 22.9001 36.7769 32.3583C26.0854 41.8165 19.2504 54.865 17.5716 69.0227C15.8929 83.1803 19.4874 97.4598 27.6717 109.146C35.856 120.832 48.0593 129.11 61.9613 132.406C75.8634 135.702 90.4945 133.785 103.073 127.021C115.651 120.257 125.299 109.117 130.183 95.719C135.067 82.3211 134.845 67.5998 129.561 54.3542C124.276 41.1086 114.297 30.2624 101.521 23.878C93.4604 19.8524 84.5741 17.7458 75.56 17.7236Z"
        fill="#D9D9D9" />
    <path
        d="M75.4403 134.94C72.0776 134.944 68.7208 134.659 65.4072 134.087C65.2633 134.062 65.1352 133.981 65.0511 133.862C64.9669 133.743 64.9336 133.595 64.9584 133.452C64.9711 133.382 64.9979 133.315 65.0371 133.255C65.0762 133.195 65.127 133.144 65.1864 133.104C65.2458 133.064 65.3126 133.037 65.3829 133.023C65.4531 133.01 65.5254 133.01 65.5953 133.025C74.3117 134.52 83.2548 134.013 91.745 131.541C100.235 129.07 108.049 124.7 114.592 118.764C121.136 112.827 126.237 105.481 129.507 97.2823C132.778 89.0839 134.132 80.2495 133.467 71.4506C132.801 62.6516 130.134 54.1198 125.668 46.5036C121.202 38.8875 115.054 32.3874 107.692 27.4975C100.331 22.6076 91.9482 19.4566 83.1825 18.284C74.4168 17.1114 65.4985 17.9481 57.1055 20.7304C57.0368 20.7531 56.9642 20.7621 56.8919 20.7568C56.8197 20.7515 56.7492 20.732 56.6845 20.6996C56.6198 20.6671 56.5622 20.6222 56.5148 20.5675C56.4675 20.5128 56.4315 20.4493 56.4087 20.3807C56.386 20.3121 56.377 20.2397 56.3823 20.1676C56.3877 20.0955 56.4071 20.0252 56.4397 19.9607C56.4722 19.8961 56.5172 19.8386 56.572 19.7914C56.6269 19.7442 56.6905 19.7082 56.7593 19.6855C87.7561 9.37258 121.399 26.1513 131.736 57.0901C134.198 64.4579 135.181 72.2373 134.629 79.9842C134.077 87.7311 132.001 95.2937 128.52 102.24C125.039 109.186 120.22 115.381 114.339 120.469C108.458 125.557 101.63 129.44 94.2453 131.895C88.1815 133.911 81.8319 134.939 75.4403 134.94Z"
        fill="url(#paint1_linear_0_1)" />
    <path
        d="M75.4361 142.434C65.09 142.421 54.8894 140.002 45.6448 135.367C45.5098 135.305 45.3886 135.218 45.2884 135.109C45.1882 134.999 45.1111 134.871 45.0617 134.732C45.0123 134.592 44.9916 134.444 45.0008 134.296C45.0101 134.149 45.0491 134.004 45.1155 133.872C45.182 133.74 45.2745 133.622 45.3875 133.527C45.5005 133.431 45.6318 133.359 45.7734 133.315C45.915 133.271 46.064 133.255 46.2116 133.27C46.3592 133.285 46.5023 133.329 46.6323 133.401C54.2148 137.183 62.4699 139.439 70.9261 140.038C79.3823 140.638 87.8741 139.57 95.9166 136.895C103.959 134.22 111.395 129.991 117.799 124.45C124.204 118.908 129.451 112.162 133.242 104.596C137.034 97.0312 139.294 88.795 139.895 80.3581C140.496 71.9212 139.426 63.4489 136.745 55.4248C134.064 47.4006 129.826 39.9819 124.271 33.5921C118.716 27.2024 111.955 21.9667 104.372 18.1841C94.3749 13.2352 83.2676 10.9411 72.1225 11.5231C60.9774 12.1051 50.1709 15.5435 40.7458 21.5066C40.6238 21.5901 40.4861 21.6481 40.3411 21.6774C40.1961 21.7067 40.0466 21.7065 39.9017 21.677C39.7567 21.6474 39.6192 21.5891 39.4973 21.5054C39.3754 21.4217 39.2716 21.3144 39.1921 21.1899C39.1127 21.0654 39.0591 20.9262 39.0347 20.7806C39.0102 20.635 39.0154 20.486 39.0499 20.3424C39.0844 20.1989 39.1475 20.0637 39.2354 19.945C39.3233 19.8262 39.4343 19.7264 39.5617 19.6513C49.3072 13.4834 60.4822 9.92691 72.0073 9.32549C83.5325 8.72406 95.0184 11.098 105.356 16.2179C118.793 22.9481 129.562 34.0042 135.92 47.5978C142.279 61.1915 143.855 76.5278 140.394 91.126C136.933 105.724 128.637 118.731 116.848 128.042C105.059 137.353 90.4672 142.423 75.4318 142.434H75.4361Z"
        fill="url(#paint2_linear_0_1)" />
    <defs>
        <linearGradient id="paint0_linear_0_1" x1="0.241566" y1="75.7924" x2="146.975" y2="75.7924"
            gradientUnits="userSpaceOnUse">
            <stop stop-color="#3CC18E" />
            <stop offset="1" stop-color="#4456A4" />
        </linearGradient>
        <linearGradient id="paint1_linear_0_1" x1="56.3788" y1="75.7924" x2="134.809" y2="75.7924"
            gradientUnits="userSpaceOnUse">
            <stop stop-color="#3CC18E" />
            <stop offset="1" stop-color="#009FB0" />
        </linearGradient>
        <linearGradient id="paint2_linear_0_1" x1="252384" y1="190402" x2="229905" y2="167872"
            gradientUnits="userSpaceOnUse">
            <stop stop-color="#3CC18E" />
            <stop offset="1" stop-color="#009FB0" />
        </linearGradient>
    </defs>
</svg>